# xmcd
#
# Track frame offsets:
#	150
#	9325
#	20348
#	31020
#	42820
#	51486
#	59846
#	69057
#	76526
#	86347
#	97840
#	110196
#	119180
#	129438
#	140143
#	150421
#	159919
#	170341
#	180882
#	191132
#
# Disc length: 2674 seconds
#
# Revision: 1
# Processed by: cddbd v1.5.2PL0 Copyright (c) Steve Scherf et al.
# Submitted via: audiograbber 1.83.01
#
DISCID=f70a7014
DTITLE=Fats Domino - I'm Walkin'
DYEAR=2011
DGENRE=Rock 'N' Roll and Blues
TTITLE0=I'm Walkin'
TTITLE1=Ain't That A Shame
TTITLE2=Blueberry Hill
TTITLE3=The Fat Man
TTITLE4=I'm In Love Again
TTITLE5=Valley Of Tears
TTITLE6=It's You I Love
TTITLE7=Whole Lotta Loving
TTITLE8=Goin' Home
TTITLE9=Please Don't Leave Me
TTITLE10=Bo Weevil
TTITLE11=Little Mary
TTITLE12=Blue Monday
TTITLE13=All By Myself
TTITLE14=When My Dreamboat Comes Home
TTITLE15=Every Night About This Time
TTITLE16=Poor Me
TTITLE17=I Want To Walk You Home
TTITLE18=Be My Guest
TTITLE19=Hello Josephine
EXTD=
EXTT0=
EXTT1=
EXTT2=
EXTT3=
EXTT4=
EXTT5=
EXTT6=
EXTT7=
EXTT8=
EXTT9=
EXTT10=
EXTT11=
EXTT12=
EXTT13=
EXTT14=
EXTT15=
EXTT16=
EXTT17=
EXTT18=
EXTT19=
PLAYORDER=
